<svg width="22" height="18" viewBox="0 0 22 18" fill="none" xmlns="http://www.w3.org/2000/svg">
<path d="M18.5 14.5C18.5 15.163 18.2366 15.7989 17.7678 16.2678C17.2989 16.7366 16.663 17 16 17C15.337 17 14.7011 16.7366 14.2322 16.2678C13.7634 15.7989 13.5 15.163 13.5 14.5C13.5 13.837 13.7634 13.2011 14.2322 12.7322C14.7011 12.2634 15.337 12 16 12C16.663 12 17.2989 12.2634 17.7678 12.7322C18.2366 13.2011 18.5 13.837 18.5 14.5ZM8.5 14.5C8.5 15.163 8.23661 15.7989 7.76777 16.2678C7.29893 16.7366 6.66304 17 6 17C5.33696 17 4.70107 16.7366 4.23223 16.2678C3.76339 15.7989 3.5 15.163 3.5 14.5C3.5 13.837 3.76339 13.2011 4.23223 12.7322C4.70107 12.2634 5.33696 12 6 12C6.66304 12 7.29893 12.2634 7.76777 12.7322C8.23661 13.2011 8.5 13.837 8.5 14.5Z" stroke="black" stroke-opacity="0.62" stroke-width="1.5" stroke-linecap="round" stroke-linejoin="round"/>
<path d="M13.5 14.5H8.5M18.5 14.5H19.263C19.483 14.5 19.593 14.5 19.685 14.488C20.016 14.4468 20.3239 14.2964 20.5599 14.0606C20.7959 13.8248 20.9465 13.517 20.988 13.186C21 13.093 21 12.983 21 12.763V10C21 8.27609 20.3152 6.62279 19.0962 5.40381C17.8772 4.18482 16.2239 3.5 14.5 3.5M14 12.5V4C14 2.586 14 1.879 13.56 1.44C13.122 1 12.415 1 11 1H4C2.586 1 1.879 1 1.44 1.44C1 1.878 1 2.585 1 4V12C1 12.935 1 13.402 1.201 13.75C1.33265 13.978 1.52199 14.1674 1.75 14.299C2.098 14.5 2.565 14.5 3.5 14.5" stroke="black" stroke-opacity="0.62" stroke-width="1.5" stroke-linecap="round" stroke-linejoin="round"/>
<path d="M8.327 9L9.813 7.826C10.604 7.2 11 6.888 11 6.5M11 6.5C11 6.112 10.604 5.8 9.813 5.174L8.327 4M11 6.5H4" stroke="black" stroke-opacity="0.62" stroke-width="1.5" stroke-linecap="round" stroke-linejoin="round"/>
</svg>
