<svg width="24" height="24" viewBox="0 0 24 24" fill="none" xmlns="http://www.w3.org/2000/svg">
<path d="M9 6.11111H15M9 9.22222H15M9 12.3333H13M5 4.55556C5 4.143 5.21071 3.74733 5.58579 3.45561C5.96086 3.16389 6.46957 3 7 3H17C17.5304 3 18.0391 3.16389 18.4142 3.45561C18.7893 3.74733 19 4.143 19 4.55556V15.4444C19 15.857 18.7893 16.2527 18.4142 16.5444C18.0391 16.8361 17.5304 17 17 17H7C6.46957 17 5.96086 16.8361 5.58579 16.5444C5.21071 16.2527 5 15.857 5 15.4444V4.55556Z" stroke="black" stroke-opacity="0.62" stroke-width="2" stroke-linecap="round" stroke-linejoin="round"/>
</svg>
